# AST/ASF file generated using VICON BodyLanguage
# -----------------------------------------------
:version 1.10
:name VICON
:units
  mass 1.0
  length 0.45
  angle deg
:documentation
   .ast/.asf automatically generated from VICON data using
   VICON BodyBuilder and BodyLanguage model FoxedUp or BRILLIANT.MOD
:root
   order TX TY TZ RX RY RZ
   axis XYZ
   position 0 0 0  
   orientation 0 0 0 
:bonedata
  begin
     id 1 
     name lhipjoint
     direction 0.535335 -0.74333 0.401095 
     length 2.04549 
     axis 0 0 0  XYZ
  end
  begin
     id 2 
     name lfemur
     direction 0.34202 -0.939693 0  
     length 6.95643  
     axis 0 0 20  XYZ
    dof rx ry rz
    limits (-160.0 20.0)
           (-70.0 70.0)
           (-60.0 70.0)
  end
  begin
     id 3 
     name ltibia
     direction 0.34192 -0.939729 0   
     length 5.55969   
     axis 0 0 20   XYZ
    dof rx
    limits (-10.0 170.0)
  end
  begin
     id 4 
     name lfoot
     direction 0.216943 -0.596046 0.773088   
     length 2.27918   
     axis -90 7.62852e-016 20   XYZ
    dof rx rz
    limits (-45.0 90.0)
           (-70.0 20.0)
  end
  begin
     id 5 
     name ltoes
     direction 1.53519e-011 -4.21748e-011 1   
     length 1.05562   
     axis -90 7.62852e-016 20   XYZ
    dof rx
    limits (-90.0 20.0)
  end
  begin
     id 6 
     name rhipjoint
     direction -0.576368 -0.719173 0.38806   
     length 2.1142  
     axis 0 0 0  XYZ 
  end
  begin
     id 7 
     name rfemur
     direction -0.34202 -0.939693 0   
     length 7.07928   
     axis 0 0 -20   XYZ
    dof rx ry rz
    limits (-160.0 20.0)
           (-70.0 70.0)
           (-70.0 60.0)
  end
  begin
     id 8 
     name rtibia
     direction -0.34202 -0.939693 0   
     length 5.79974   
     axis 0 0 -20   XYZ
    dof rx
    limits (-10.0 170.0)
 end
 begin
     id 9 
     name rfoot
     direction -0.189288 -0.520065 0.832888   
     length 2.42173  
     axis -90 -7.62852e-016 -20   XYZ
    dof rx rz
    limits (-45.0 90.0)
           (-20.0 70.0)
  end
  begin
     id 10 
     name rtoes
     direction -1.53574e-011 -4.21658e-011 1   
     length 1.14469   
     axis -90 -7.62852e-016 -20   XYZ
    dof rx
    limits (-90.0 20.0)
  end
  begin
     id 11 
     name lowerback
     direction -0.00135702 0.993803 0.111144   
     length 1.91308   
     axis 0 0 0   XYZ
    dof rx ry rz
    limits (-20.0 45.0)
           (-30.0 30.0)
           (-30.0 30.0)
  end
  begin
     id 12 
     name upperback
     direction -0.0056745 0.999813 0.0184631   
     length 1.9212   
     axis 0 0 0   XYZ
    dof rx ry rz
    limits (-20.0 45.0)
           (-30.0 30.0)
           (-30.0 30.0)
  end
  begin
     id 13 
     name thorax
     direction -0.00733434 0.999426 -0.0330788   
     length 1.94196   
     axis 0 0 0   XYZ
    dof rx ry rz
    limits (-20.0 45.0)
           (-30.0 30.0)
           (-30.0 30.0)
  end
  begin
     id 14 
     name lowerneck
     direction 0.0563074 0.996944 -0.0541571   
     length 2.34257   
     axis 0 0 0   XYZ
    dof rx ry rz
    limits (-20.0 45.0)
           (-30.0 30.0)
           (-30.0 30.0)
  end
  begin
     id 15 
     name upperneck
     direction -0.0544519 0.976166 -0.210085   
     length 2.32506   
     axis 0 0 0   XYZ
    dof rx ry rz
    limits (-20.0 45.0)
           (-30.0 30.0)
           (-30.0 30.0)
  end
  begin
     id 16
     name head
     direction -0.0226035 0.997615 -0.0652205  
     length 2.3648  
     axis 0 0 0   XYZ
    dof rx ry rz
    limits (-20.0 45.0)
           (-30.0 30.0)
           (-30.0 30.0)
  end
  begin
     id 17 
     name lclavicle
     direction 0.92109 0.381297 -0.0787716  
     length 4.0487  
     axis 0 0 0   XYZ
    dof ry rz
    limits (-20.0 10.0)
           (0.0 20.0)
  end
  begin
     id 18 
     name lhumerus
     direction 1 -4.48986e-011 3.56724e-027   
     length 4.94991   
     axis 180 -30 -90   XYZ
    dof rx ry rz
    limits (-60.0 90.0)
           (-90.0 90.0)
           (-90.0 90.0)
  end
  begin
     id 19
     name lradius
     direction 1 -4.48981e-011 8.62147e-027   
     length 2.7606   
     axis 180 -30 -90   XYZ
    dof rx
    limits (-10.0 170.0)
  end
  begin
     id 20
     name lwrist
     direction 1 -4.48989e-011 1.59799e-026   
     length 1.3803   
     axis -1.17785e-014 90 90   XYZ
    dof ry
    limits (-180.0 0.0)
 end
  begin
     id 21 
     name lhand
     direction 1 -4.48896e-011 3.19599e-026   
     length 0.843936   
     axis -2.03931e-014 90 90   XYZ
    dof rx rz
    limits (-90.0 90.0)
           (-45.0 45.0)
  end
  begin
     id 22 
     name lfingers
     direction 1 -4.48887e-011 6.39197e-026   
     length 0.680403   
     axis -4.07862e-014 90 90   XYZ
    dof rx
    limits (0.0 90.0)
  end
  begin
     id 23
     name lthumb
     direction 0.707107 -6.348e-011 0.707107   
     length 0.976926   
     axis -90 45 2.85299e-015   XYZ
    dof rx rz
    limits (-45.0 45.0)
           (-45.0 45.0)
  end
  begin
     id 24 
     name rclavicle
     direction -0.951104 0.307692 -0.026953   
     length 4.21801  
     axis 0 0 0   XYZ 
    dof ry rz
    limits (-10.0 20.0)
           (-20.0 0.0)
  end
  begin
     id 25 
     name rhumerus
     direction -1 -4.4896e-011 -1.8171e-018  
     length 4.32982   
     axis 180 30 90   XYZ
    dof rx ry rz
    limits (-90.0 60.0)
           (-90.0 90.0)
           (-90.0 90.0)
  end
  begin
     id 26 
     name rradius
     direction -1 -4.48959e-011 8.25165e-027   
     length 3.20057   
     axis 180 30 90   XYZ
    dof rx
    limits (-10.0 170.0)
  end
  begin
     id 27 
     name rwrist
     direction -1 -4.48997e-011 1.59799e-026   
     length 1.60029   
     axis -1.17785e-014 -90 -90   XYZ
    dof ry
    limits (-180.0 0.0)
  end
  begin
     id 28
     name rhand
     direction -1 -4.49023e-011 3.19599e-026   
     length 0.960433   
     axis -2.03931e-014 -90 -90   XYZ
    dof rx rz
    limits (-90.0 90.0)
           (-45.0 45.0)
  end
  begin
     id 29
     name rfingers
     direction -1 -4.48802e-011 6.39197e-026   
     length 0.774326   
     axis -4.07862e-014 -90 -90   XYZ
    dof rx
    limits (0.0 90.0)
  end
  begin
     id 30
     name rthumb
     direction -0.707107 -6.34876e-011 0.707107   
     length 1.11178   
     axis -90 -45 -2.85299e-015   XYZ
    dof rx rz
    limits (-45.0 45.0)
           (-45.0 45.0)
  end
:hierarchy
  begin
    root lhipjoint rhipjoint lowerback
    lhipjoint lfemur
    lfemur ltibia
    ltibia lfoot
    lfoot ltoes
    rhipjoint rfemur
    rfemur rtibia
    rtibia rfoot
    rfoot rtoes
    lowerback upperback
    upperback thorax
    thorax lowerneck lclavicle rclavicle
    lowerneck upperneck
    upperneck head
    lclavicle lhumerus
    lhumerus lradius
    lradius lwrist
    lwrist lhand lthumb
    lhand lfingers
    rclavicle rhumerus
    rhumerus rradius
    rradius rwrist
    rwrist rhand rthumb
    rhand rfingers
end

#!OML:ASF C:\KaitlinTest1\Natural Motions\Nikki\Session 2\Nikki.ASF
:FULLY-SPECIFIED
:DEGREES
540
root -18.8757 16.63 5.052 -154.316 85.7266 -164.244
lowerback -13.4425 -1.63133 -0.0876478
upperback -4.00952 -1.93766 -0.612912
thorax 3.29496 -0.884102 -0.895089
lowerneck -1.78733 1.60124 8.50593
upperneck 27.3732 3.89307 -5.65189
head 9.10059 2.56594 -3.0316
rclavicle -9.46712e-015 1.59028e-015
rhumerus -42.6523 -22.1282 -79.4099
rradius 18.4543
rwrist 28.9816
rhand -35.8734 3.01342
rfingers 7.12502
rthumb -8.98761 -26.7751
lclavicle -9.46712e-015 1.59028e-015
lhumerus -42.4552 16.4196 80.0013
lradius 23.9502
lwrist -40.7006
lhand -32.7632 3.51775
lfingers 7.12502
lthumb -5.98559 33.4132
rfemur -7.66943 -16.7935 21.0522
rtibia 11.1026
rfoot -10.7088 11.9166
rtoes -6.20208e-014
lfemur -9.95258 11.9567 -17.8599
ltibia 9.83124
lfoot -2.21427 -16.7253
ltoes -6.99722e-014
541
root -18.8731 16.6305 5.05102 -153.992 85.7785 -163.918
lowerback -13.4746 -1.61399 -0.0742812
upperback -4.01243 -1.91673 -0.596541
thorax 3.3097 -0.873479 -0.883082
lowerneck -1.75889 1.605 8.45718
upperneck 27.3734 3.90369 -5.63595
head 9.09489 2.56866 -3.01689
rclavicle -1.47349e-014 -9.14409e-015
rhumerus -42.688 -22.1701 -79.327
rradius 18.4518
rwrist 29.0707
rhand -35.8756 3.03757
rfingers 7.12502
rthumb -8.9898 -26.7509
lclavicle -1.47349e-014 -9.14409e-015
lhumerus -42.4506 16.3914 80.0718
lradius 23.9814
lwrist -40.4849
lhand -32.649 3.60368
lfingers 7.12502
lthumb -5.87531 33.5022
rfemur -7.67339 -16.7439 21.0405
rtibia 11.1048
rfoot -10.6634 11.9362
rtoes -7.55382e-014
lfemur -9.93634 12.0125 -17.868
ltibia 9.82098
lfoot -2.21346 -16.7285
ltoes -5.725e-014
542
root -18.874 16.6306 5.05128 -153.964 85.7684 -163.878
lowerback -13.4478 -1.62172 -0.0743155
upperback -4.01087 -1.92763 -0.593547
thorax 3.29676 -0.879111 -0.880933
lowerneck -1.72082 1.61057 8.47517
upperneck 27.3231 3.91205 -5.65041
head 9.07127 2.57224 -3.02423
rclavicle -1.963e-014 -1.51076e-014
rhumerus -42.6455 -22.0528 -79.4314
rradius 18.4704
rwrist 28.9052
rhand -35.8652 2.95177
rfingers 7.12502
rthumb -8.9797 -26.8371
lclavicle -1.963e-014 -1.51076e-014
lhumerus -42.4333 16.3259 80.1294
lradius 23.9692
lwrist -40.2715
lhand -32.7571 3.58533
lfingers 7.12502
lthumb -5.97967 33.481
rfemur -7.66066 -16.7055 21.0417
rtibia 11.1194
rfoot -10.6818 11.8906
rtoes -4.77083e-014
lfemur -9.92628 12.0045 -17.8571
ltibia 9.79828
lfoot -2.17472 -16.7101
ltoes -2.54444e-014
543
root -18.8722 16.6309 5.05011 -153.955 85.7836 -163.884
lowerback -13.5041 -1.60984 -0.0643577
upperback -3.9904 -1.91268 -0.605259
thorax 3.34815 -0.871587 -0.898385
lowerneck -1.76202 1.61665 8.50354
upperneck 27.3156 3.91099 -5.64995
head 9.07691 2.57281 -3.02865
rclavicle 3.10104e-014 9.54166e-015
rhumerus -42.627 -22.2123 -79.3826
rradius 18.4414
rwrist 29.0298
rhand -35.8533 2.98209
rfingers 7.12502
rthumb -8.96828 -26.8073
lclavicle 3.10104e-014 9.54166e-015
lhumerus -42.4039 16.284 80.1585
lradius 23.9804
lwrist -40.2093
lhand -32.8246 3.52488
lfingers 7.12502
lthumb -6.04491 33.4186
rfemur -7.66613 -16.7398 21.035
rtibia 11.0986
rfoot -10.6719 11.9404
rtoes 3.89618e-014
lfemur -9.93191 12.018 -17.8705
ltibia 9.80515
lfoot -2.20781 -16.723
ltoes 7.95139e-015
544
root -18.875 16.6305 5.05134 -154.134 85.7516 -164.097
lowerback -13.4817 -1.62971 -0.086489
upperback -4.00986 -1.93575 -0.597971
thorax 3.31633 -0.88287 -0.88099
lowerneck -1.77053 1.6107 8.51799
upperneck 27.327 3.90911 -5.68165
head 9.08301 2.57054 -3.04246
rclavicle -3.00662e-015 -3.57812e-015
rhumerus -42.6265 -22.0925 -79.4529
rradius 18.4859
rwrist 28.8695
rhand -35.8522 3.05286
rfingers 7.12502
rthumb -8.96718 -26.7366
lclavicle -3.00662e-015 -3.57812e-015
lhumerus -42.4083 16.2802 80.1442
lradius 23.9605
lwrist -40.4053
lhand -32.8518 3.55818
lfingers 7.12502
lthumb -6.07112 33.4512
rfemur -7.69657 -16.7144 21.0472
rtibia 11.0832
rfoot -10.6402 11.8791
rtoes 3.97569e-015
lfemur -9.98895 11.9844 -17.8729
ltibia 9.82112
lfoot -2.20829 -16.7211
ltoes 4.92986e-014
545
root -18.8735 16.6302 5.05085 -153.851 85.7649 -163.767
lowerback -13.4327 -1.62083 -0.0614216
upperback -4.01618 -1.92843 -0.589156
thorax 3.28272 -0.879537 -0.883202
lowerneck -1.71481 1.61131 8.49137
upperneck 27.3091 3.91331 -5.66207
head 9.06579 2.57299 -3.03093
rclavicle 5.19325e-015 4.77083e-015
rhumerus -42.639 -21.9765 -79.5127
rradius 18.5061
rwrist 28.7633
rhand -35.8711 3.05202
rfingers 7.12502
rthumb -8.98545 -26.7366
lclavicle 5.19325e-015 4.77083e-015
lhumerus -42.4437 16.2365 80.2038
lradius 24.0107
lwrist -40.089
lhand -32.8093 3.56821
lfingers 7.12502
lthumb -6.03015 33.4624
rfemur -7.64272 -16.6463 21.0412
rtibia 11.0861
rfoot -10.6236 11.8416
rtoes 3.57812e-014
lfemur -9.93407 12.0047 -17.8506
ltibia 9.81788
lfoot -2.20874 -16.7238
ltoes 7.63333e-014
